<?xml version="1.0" standalone="no"?>
<!DOCTYPE svg PUBLIC "-//W3C//DTD SVG 20010904//EN"
 "http://www.w3.org/TR/2001/REC-SVG-20010904/DTD/svg10.dtd">
<svg version="1.0" xmlns="http://www.w3.org/2000/svg"
 width="512.000000pt" height="512.000000pt" viewBox="0 0 512.000000 512.000000"
 preserveAspectRatio="xMidYMid meet">

<g transform="translate(0.000000,512.000000) scale(0.100000,-0.100000)"
fill="#bb9933" stroke="#888888" stroke-width="80">
<path d="M3935 4575 c-27 -7 -54 -11 -59 -8 -5 4 -6 0 -1 -7 6 -10 4 -12 -9
-7 -10 4 -15 3 -11 -3 6 -10 -9 -15 -30 -10 -5 1 -7 -1 -4 -4 3 -4 -13 -25
-36 -49 -67 -66 -83 -169 -33 -214 19 -17 21 -17 61 6 133 77 208 96 281 71
45 -14 98 -58 89 -72 -3 -7 -1 -8 5 -4 28 17 108 -208 100 -281 -2 -18 0 -29
6 -26 14 9 0 -180 -19 -266 -21 -90 -58 -184 -70 -174 -4 5 -5 2 -1 -5 11 -19
-65 -142 -135 -216 -32 -35 -84 -80 -114 -101 l-54 -38 -133 19 c-194 28 -752
27 -988 -1 -91 -11 -184 -19 -207 -20 -22 0 -39 -3 -37 -6 2 -4 -20 -9 -49
-12 -28 -4 -110 -18 -182 -32 -71 -14 -136 -23 -144 -20 -9 3 -12 3 -8 -2 10
-10 -211 -62 -299 -69 -88 -8 -207 3 -198 18 5 7 2 8 -6 3 -16 -10 -91 15 -83
28 4 6 1 7 -6 3 -17 -11 -85 37 -158 111 -75 76 -167 137 -242 160 -62 19
-186 116 -174 136 3 7 3 9 -2 5 -4 -4 -33 15 -63 43 -31 28 -57 47 -58 43 -2
-5 -8 -55 -14 -111 -8 -63 -17 -103 -24 -103 -25 0 -143 -63 -174 -93 -18 -17
-37 -48 -43 -69 -5 -21 -36 -71 -68 -111 -82 -103 -85 -109 -66 -153 8 -20 12
-41 8 -47 -3 -5 -2 -7 4 -4 6 4 18 -11 28 -33 28 -63 50 -80 100 -80 119 0
231 -49 330 -144 99 -97 105 -115 104 -308 0 -90 -4 -242 -8 -338 l-7 -175
-53 -97 c-30 -54 -59 -94 -64 -91 -6 3 -7 1 -3 -5 13 -22 -148 -235 -269 -357
-117 -117 -134 -127 -220 -133 -59 -4 -78 -9 -93 -26 -32 -34 -35 -60 -11 -89
20 -27 22 -27 143 -27 106 0 127 3 148 19 13 11 64 46 113 79 84 55 553 431
639 511 21 20 62 68 91 106 81 109 177 165 246 145 19 -6 72 -13 119 -16 115
-8 144 -18 185 -67 42 -49 168 -291 157 -302 -4 -5 -2 -5 4 -2 6 3 37 -42 72
-106 51 -92 62 -120 62 -158 0 -43 -3 -49 -50 -88 -41 -34 -50 -48 -50 -74 0
-57 9 -62 120 -65 151 -6 148 -8 152 173 2 80 1 146 -2 148 -9 4 -70 270 -80
350 -6 43 -10 112 -10 152 0 66 2 76 23 89 31 20 135 49 153 42 8 -3 13 -2 9
3 -10 17 126 25 211 13 44 -7 95 -12 113 -12 18 0 30 -3 28 -7 -3 -5 47 -7
110 -5 63 2 113 0 110 -5 -3 -4 29 -7 70 -5 69 3 75 2 80 -18 17 -63 78 -164
144 -239 41 -46 73 -87 71 -92 -1 -5 2 -8 7 -7 5 2 29 -23 54 -56 54 -68 76
-144 58 -199 -14 -41 -146 -196 -178 -208 -13 -5 -41 -9 -61 -9 -43 0 -102
-33 -109 -60 -3 -11 -9 -17 -14 -15 -4 3 -3 -8 2 -25 19 -52 41 -60 164 -60
l110 0 175 200 c96 110 183 217 194 237 30 59 33 180 7 274 -35 124 -24 199
27 199 32 0 62 -12 55 -23 -3 -5 -1 -7 4 -4 6 4 50 -7 99 -23 49 -17 133 -39
186 -50 116 -24 130 -29 121 -43 -4 -6 -1 -7 6 -2 21 13 115 -95 155 -176 44
-93 66 -183 66 -277 0 -68 2 -76 29 -103 35 -34 59 -36 95 -8 64 51 68 99 26
309 -16 79 -26 149 -23 155 4 5 3 7 -2 3 -4 -4 -31 50 -60 120 -29 70 -59 143
-67 162 -8 19 -39 58 -69 85 -151 140 -233 243 -266 335 -24 66 -48 214 -38
231 5 7 4 10 -2 6 -13 -8 -29 106 -17 124 4 7 3 9 -2 6 -15 -9 -56 268 -44
298 5 14 36 64 68 113 284 425 389 824 292 1111 -64 192 -233 354 -420 403
-78 20 -128 21 -195 3z"/>
<path d="M3278 3223 c12 -2 32 -2 45 0 12 2 2 4 -23 4 -25 0 -35 -2 -22 -4z"/>
</g>
</svg>
